<svg width="27" height="27" viewBox="0 0 27 27" fill="none" xmlns="http://www.w3.org/2000/svg">
<path d="M9.30034 16.515C9.09334 16.515 8.95384 16.5352 8.88184 16.5555V17.8807C8.96734 17.901 9.07421 17.9066 9.22159 17.9066C9.76046 17.9066 10.0923 17.6344 10.0923 17.1742C10.0923 16.7625 9.80659 16.515 9.30034 16.515ZM13.2232 16.5285C12.9982 16.5285 12.852 16.5487 12.7653 16.569V19.5052C12.852 19.5255 12.9915 19.5255 13.1175 19.5255C14.0366 19.5323 14.6351 19.026 14.6351 17.955C14.6418 17.0212 14.0962 16.5285 13.2232 16.5285Z" fill="white"/>
<path d="M15.75 2.25H6.75C6.15326 2.25 5.58097 2.48705 5.15901 2.90901C4.73705 3.33097 4.5 3.90326 4.5 4.5V22.5C4.5 23.0967 4.73705 23.669 5.15901 24.091C5.58097 24.5129 6.15326 24.75 6.75 24.75H20.25C20.8467 24.75 21.419 24.5129 21.841 24.091C22.2629 23.669 22.5 23.0967 22.5 22.5V9L15.75 2.25ZM10.6853 18.2138C10.3376 18.54 9.82462 18.6863 9.22725 18.6863C9.1114 18.6884 8.99556 18.6817 8.88075 18.666V20.2702H7.875V15.8422C8.32891 15.7747 8.78751 15.7439 9.24637 15.75C9.873 15.75 10.3185 15.8693 10.6189 16.1089C10.9046 16.3361 11.0981 16.7085 11.0981 17.1472C11.097 17.5882 10.9508 17.9606 10.6853 18.2138ZM14.9681 19.7381C14.4956 20.1308 13.7768 20.3175 12.8981 20.3175C12.3716 20.3175 11.9992 20.2837 11.7461 20.25V15.8434C12.2002 15.7773 12.6587 15.7461 13.1175 15.75C13.9691 15.75 14.5226 15.903 14.9546 16.2292C15.4215 16.5757 15.714 17.1281 15.714 17.9213C15.714 18.7796 15.4001 19.3725 14.9681 19.7381ZM19.125 16.6163H17.4015V17.6411H19.0125V18.4669H17.4015V20.2714H16.3823V15.7837H19.125V16.6163ZM15.75 10.125H14.625V4.5L20.25 10.125H15.75Z" fill="white"/>
</svg>
