<svg width="21" height="21" viewBox="0 0 21 21" fill="none" xmlns="http://www.w3.org/2000/svg">
<path d="M4.7303 2.1H4.71665C4.65327 2.10134 4.59066 2.11414 4.53185 2.1378C4.44681 2.17147 4.37203 2.22677 4.31494 2.29823C4.25785 2.36969 4.22041 2.45482 4.20635 2.5452C4.18955 2.6439 3.67505 5.87475 3.67505 7.35C3.67505 8.3475 4.13915 9.23685 4.86155 9.81225C5.12405 10.0233 5.25005 10.2522 5.25005 10.4433V10.9683C5.25005 10.9872 5.249 11.0061 5.2469 11.025C5.21855 11.298 5.08835 12.5254 4.9655 13.7875C4.84475 15.0318 4.72505 16.36 4.72505 16.8C4.72505 17.357 4.9463 17.8911 5.34012 18.2849C5.73395 18.6787 6.26809 18.9 6.82505 18.9C7.382 18.9 7.91615 18.6787 8.30997 18.2849C8.7038 17.8911 8.92505 17.357 8.92505 16.8C8.92505 16.359 8.80535 15.0318 8.6846 13.7875C8.59483 12.8666 8.50103 11.9461 8.4032 11.026L8.40005 10.9683V10.4433C8.40005 10.2511 8.52605 10.0233 8.78855 9.81225C9.15855 9.5173 9.45736 9.14278 9.66277 8.71651C9.86818 8.29025 9.97491 7.82318 9.97505 7.35C9.97505 5.8716 9.4574 2.62605 9.44375 2.54415C9.42831 2.44546 9.38503 2.35323 9.31901 2.27828C9.25298 2.20333 9.16695 2.14876 9.071 2.121C9.02696 2.10811 8.98142 2.10105 8.93555 2.1H8.91455H8.9156C8.7757 2.10111 8.6419 2.15746 8.54337 2.25678C8.44483 2.3561 8.38954 2.49034 8.38955 2.63025V6.83025C8.391 6.8985 8.37899 6.96637 8.3542 7.02999C8.32942 7.0936 8.29235 7.15171 8.24511 7.201C8.19787 7.25028 8.14139 7.28978 8.07888 7.31724C8.01638 7.3447 7.94908 7.35958 7.88082 7.36102C7.81257 7.36247 7.7447 7.35046 7.68108 7.32568C7.61747 7.3009 7.55936 7.26383 7.51008 7.21659C7.46079 7.16935 7.42129 7.11286 7.39383 7.05036C7.36637 6.98785 7.3515 6.92055 7.35005 6.8523V2.625C7.35005 2.48576 7.29474 2.35222 7.19628 2.25377C7.09782 2.15531 6.96429 2.1 6.82505 2.1C6.68581 2.1 6.55227 2.15531 6.45382 2.25377C6.35536 2.35222 6.30005 2.48576 6.30005 2.625V6.825L6.3011 6.8586C6.29734 6.99644 6.23897 7.12715 6.13884 7.22197C6.03871 7.31678 5.90502 7.36793 5.76717 7.36417C5.62933 7.36041 5.49862 7.30205 5.40381 7.20192C5.30899 7.10179 5.25784 6.96809 5.2616 6.83025V2.6313C5.2616 2.49057 5.20577 2.35559 5.10636 2.25598C5.00694 2.15638 4.87103 2.10028 4.7303 2.1ZM11.55 6.825C11.55 5.57185 12.0479 4.37003 12.934 3.48392C13.8201 2.59781 15.0219 2.1 16.275 2.1C16.4143 2.1 16.5478 2.15531 16.6463 2.25377C16.7447 2.35222 16.8 2.48576 16.8 2.625V9.9519L16.821 10.1871C16.9029 11.1305 16.9827 12.0741 17.0604 13.0179C17.1906 14.6002 17.325 16.3369 17.325 16.8C17.325 17.357 17.1038 17.8911 16.71 18.2849C16.3161 18.6787 15.782 18.9 15.225 18.9C14.6681 18.9 14.134 18.6787 13.7401 18.2849C13.3463 17.8911 13.125 17.357 13.125 16.8C13.125 16.338 13.2594 14.6002 13.3896 13.0179C13.4547 12.2188 13.5209 11.446 13.5702 10.8738L13.6017 10.5H13.125C12.7073 10.5 12.3067 10.3341 12.0114 10.0387C11.716 9.74332 11.55 9.34271 11.55 8.925V6.825Z" fill="black" fill-opacity="0.9"/>
</svg>
