<svg width="22" height="22" viewBox="0 0 22 22" fill="none" xmlns="http://www.w3.org/2000/svg">
<path d="M7.33329 11H14.6666V9.16666H7.33329V11ZM7.33329 7.33333H14.6666V5.49999H7.33329V7.33333ZM18.2875 18.7687L14.575 13.9333C14.3152 13.5819 13.9944 13.3109 13.6125 13.1202C13.2305 12.9296 12.818 12.8339 12.375 12.8333H3.66663V3.66666C3.66663 3.16249 3.84629 2.73105 4.20563 2.37233C4.56496 2.01361 4.9964 1.83394 5.49996 1.83333H16.5C17.0041 1.83333 17.4359 2.01299 17.7952 2.37233C18.1545 2.73166 18.3339 3.16311 18.3333 3.66666V18.3333C18.3333 18.4097 18.3296 18.4824 18.3223 18.5515C18.315 18.6206 18.3033 18.693 18.2875 18.7687ZM5.49996 20.1667C4.99579 20.1667 4.56435 19.9873 4.20563 19.6286C3.8469 19.2699 3.66724 18.8381 3.66663 18.3333V14.6667H12.375C12.5277 14.6667 12.6692 14.7012 12.7994 14.7702C12.9295 14.8393 13.0402 14.9346 13.1312 15.0562L16.9812 20.0979C16.9048 20.1285 16.8248 20.1477 16.741 20.1557C16.6573 20.1636 16.577 20.1673 16.5 20.1667H5.49996Z" fill="black" fill-opacity="0.9"/>
</svg>
