<svg width="18" height="18" viewBox="0 0 18 18" fill="none" xmlns="http://www.w3.org/2000/svg">
<g clip-path="url(#clip0_1_4784)">
<path d="M3.375 0C3.07663 0 2.79048 0.118526 2.5795 0.329505C2.36853 0.540483 2.25 0.826631 2.25 1.125V16.875C2.25 17.1734 2.36853 17.4595 2.5795 17.6705C2.79048 17.8815 3.07663 18 3.375 18H6.75V14.0625C6.75 13.9133 6.80926 13.7702 6.91475 13.6648C7.02024 13.5593 7.16332 13.5 7.3125 13.5H10.6875C10.8367 13.5 10.9798 13.5593 11.0852 13.6648C11.1907 13.7702 11.25 13.9133 11.25 14.0625V18H14.625C14.9234 18 15.2095 17.8815 15.4205 17.6705C15.6315 17.4595 15.75 17.1734 15.75 16.875V1.125C15.75 0.826631 15.6315 0.540483 15.4205 0.329505C15.2095 0.118526 14.9234 0 14.625 0L3.375 0ZM4.5 2.8125C4.5 2.66332 4.55926 2.52024 4.66475 2.41475C4.77024 2.30926 4.91332 2.25 5.0625 2.25H6.1875C6.33668 2.25 6.47976 2.30926 6.58525 2.41475C6.69074 2.52024 6.75 2.66332 6.75 2.8125V3.9375C6.75 4.08668 6.69074 4.22976 6.58525 4.33525C6.47976 4.44074 6.33668 4.5 6.1875 4.5H5.0625C4.91332 4.5 4.77024 4.44074 4.66475 4.33525C4.55926 4.22976 4.5 4.08668 4.5 3.9375V2.8125ZM7.875 2.8125C7.875 2.66332 7.93426 2.52024 8.03975 2.41475C8.14524 2.30926 8.28832 2.25 8.4375 2.25H9.5625C9.71168 2.25 9.85476 2.30926 9.96025 2.41475C10.0657 2.52024 10.125 2.66332 10.125 2.8125V3.9375C10.125 4.08668 10.0657 4.22976 9.96025 4.33525C9.85476 4.44074 9.71168 4.5 9.5625 4.5H8.4375C8.28832 4.5 8.14524 4.44074 8.03975 4.33525C7.93426 4.22976 7.875 4.08668 7.875 3.9375V2.8125ZM11.8125 2.25H12.9375C13.0867 2.25 13.2298 2.30926 13.3352 2.41475C13.4407 2.52024 13.5 2.66332 13.5 2.8125V3.9375C13.5 4.08668 13.4407 4.22976 13.3352 4.33525C13.2298 4.44074 13.0867 4.5 12.9375 4.5H11.8125C11.6633 4.5 11.5202 4.44074 11.4148 4.33525C11.3093 4.22976 11.25 4.08668 11.25 3.9375V2.8125C11.25 2.66332 11.3093 2.52024 11.4148 2.41475C11.5202 2.30926 11.6633 2.25 11.8125 2.25ZM4.5 6.1875C4.5 6.03832 4.55926 5.89524 4.66475 5.78975C4.77024 5.68426 4.91332 5.625 5.0625 5.625H6.1875C6.33668 5.625 6.47976 5.68426 6.58525 5.78975C6.69074 5.89524 6.75 6.03832 6.75 6.1875V7.3125C6.75 7.46168 6.69074 7.60476 6.58525 7.71025C6.47976 7.81574 6.33668 7.875 6.1875 7.875H5.0625C4.91332 7.875 4.77024 7.81574 4.66475 7.71025C4.55926 7.60476 4.5 7.46168 4.5 7.3125V6.1875ZM8.4375 5.625H9.5625C9.71168 5.625 9.85476 5.68426 9.96025 5.78975C10.0657 5.89524 10.125 6.03832 10.125 6.1875V7.3125C10.125 7.46168 10.0657 7.60476 9.96025 7.71025C9.85476 7.81574 9.71168 7.875 9.5625 7.875H8.4375C8.28832 7.875 8.14524 7.81574 8.03975 7.71025C7.93426 7.60476 7.875 7.46168 7.875 7.3125V6.1875C7.875 6.03832 7.93426 5.89524 8.03975 5.78975C8.14524 5.68426 8.28832 5.625 8.4375 5.625ZM11.25 6.1875C11.25 6.03832 11.3093 5.89524 11.4148 5.78975C11.5202 5.68426 11.6633 5.625 11.8125 5.625H12.9375C13.0867 5.625 13.2298 5.68426 13.3352 5.78975C13.4407 5.89524 13.5 6.03832 13.5 6.1875V7.3125C13.5 7.46168 13.4407 7.60476 13.3352 7.71025C13.2298 7.81574 13.0867 7.875 12.9375 7.875H11.8125C11.6633 7.875 11.5202 7.81574 11.4148 7.71025C11.3093 7.60476 11.25 7.46168 11.25 7.3125V6.1875ZM5.0625 9H6.1875C6.33668 9 6.47976 9.05926 6.58525 9.16475C6.69074 9.27024 6.75 9.41332 6.75 9.5625V10.6875C6.75 10.8367 6.69074 10.9798 6.58525 11.0852C6.47976 11.1907 6.33668 11.25 6.1875 11.25H5.0625C4.91332 11.25 4.77024 11.1907 4.66475 11.0852C4.55926 10.9798 4.5 10.8367 4.5 10.6875V9.5625C4.5 9.41332 4.55926 9.27024 4.66475 9.16475C4.77024 9.05926 4.91332 9 5.0625 9ZM7.875 9.5625C7.875 9.41332 7.93426 9.27024 8.03975 9.16475C8.14524 9.05926 8.28832 9 8.4375 9H9.5625C9.71168 9 9.85476 9.05926 9.96025 9.16475C10.0657 9.27024 10.125 9.41332 10.125 9.5625V10.6875C10.125 10.8367 10.0657 10.9798 9.96025 11.0852C9.85476 11.1907 9.71168 11.25 9.5625 11.25H8.4375C8.28832 11.25 8.14524 11.1907 8.03975 11.0852C7.93426 10.9798 7.875 10.8367 7.875 10.6875V9.5625ZM11.8125 9H12.9375C13.0867 9 13.2298 9.05926 13.3352 9.16475C13.4407 9.27024 13.5 9.41332 13.5 9.5625V10.6875C13.5 10.8367 13.4407 10.9798 13.3352 11.0852C13.2298 11.1907 13.0867 11.25 12.9375 11.25H11.8125C11.6633 11.25 11.5202 11.1907 11.4148 11.0852C11.3093 10.9798 11.25 10.8367 11.25 10.6875V9.5625C11.25 9.41332 11.3093 9.27024 11.4148 9.16475C11.5202 9.05926 11.6633 9 11.8125 9Z" fill="black" fill-opacity="0.9"/>
</g>
<defs>
<clipPath id="clip0_1_4784">
<rect width="18" height="18" fill="white"/>
</clipPath>
</defs>
</svg>
