<svg width="13" height="13" viewBox="0 0 13 13" fill="none" xmlns="http://www.w3.org/2000/svg">
<path fill-rule="evenodd" clip-rule="evenodd" d="M2.25 2.00016C2.09529 2.00016 1.94692 2.06162 1.83752 2.17102C1.72812 2.28041 1.66667 2.42879 1.66667 2.5835V10.7502C1.66667 10.9049 1.72812 11.0532 1.83752 11.1626C1.94692 11.272 2.09529 11.3335 2.25 11.3335H10.4167C10.5714 11.3335 10.7197 11.272 10.8291 11.1626C10.9385 11.0532 11 10.9049 11 10.7502V7.68008C11 7.52537 11.0615 7.377 11.1709 7.2676C11.2802 7.1582 11.4286 7.09675 11.5833 7.09675C11.738 7.09675 11.8864 7.1582 11.9958 7.2676C12.1052 7.377 12.1667 7.52537 12.1667 7.68008V10.7502C12.1667 11.2143 11.9823 11.6594 11.6541 11.9876C11.3259 12.3158 10.8808 12.5002 10.4167 12.5002H2.25C1.78587 12.5002 1.34075 12.3158 1.01256 11.9876C0.684375 11.6594 0.5 11.2143 0.5 10.7502V2.5835C0.5 2.11937 0.684375 1.67425 1.01256 1.34606C1.34075 1.01787 1.78587 0.833496 2.25 0.833496H5.17658C5.33129 0.833496 5.47967 0.894954 5.58906 1.00435C5.69846 1.11375 5.75992 1.26212 5.75992 1.41683C5.75992 1.57154 5.69846 1.71991 5.58906 1.82931C5.47967 1.9387 5.33129 2.00016 5.17658 2.00016H2.25Z" fill="black"/>
<path fill-rule="evenodd" clip-rule="evenodd" d="M11.823 1.16716C11.928 1.27246 11.987 1.41511 11.987 1.56383C11.987 1.71254 11.928 1.85519 11.823 1.96049L6.70603 7.08566C6.65402 7.13769 6.59228 7.17897 6.52431 7.20713C6.45635 7.23529 6.38351 7.24978 6.30994 7.24978C6.23638 7.24978 6.16354 7.23529 6.09557 7.20713C6.02761 7.17897 5.96587 7.13769 5.91386 7.08566C5.80885 6.98036 5.74988 6.83771 5.74988 6.68899C5.74988 6.54028 5.80885 6.39763 5.91386 6.29233L11.0314 1.16716C11.1364 1.06225 11.2788 1.00333 11.4272 1.00333C11.5757 1.00333 11.718 1.06225 11.823 1.16716Z" fill="black"/>
<path fill-rule="evenodd" clip-rule="evenodd" d="M11.6067 0.833496C11.9159 0.833496 12.1667 1.08433 12.1667 1.39466V4.3335C12.1667 4.64325 11.8925 4.91683 11.5834 4.91683C11.2742 4.91683 11 4.64325 11 4.3335V2.00016H8.66671C8.35754 2.00016 8.08337 1.72658 8.08337 1.41683C8.08337 1.10708 8.33421 0.833496 8.64337 0.833496H11.6067Z" fill="black"/>
</svg>
