<svg width="22" height="22" viewBox="0 0 22 22" fill="none" xmlns="http://www.w3.org/2000/svg">
<path d="M6.4165 6.41667H5.49984C5.01361 6.41667 4.54729 6.60983 4.20347 6.95364C3.85966 7.29746 3.6665 7.76377 3.6665 8.25001V16.5C3.6665 16.9862 3.85966 17.4526 4.20347 17.7964C4.54729 18.1402 5.01361 18.3333 5.49984 18.3333H13.7498C14.2361 18.3333 14.7024 18.1402 15.0462 17.7964C15.39 17.4526 15.5832 16.9862 15.5832 16.5V15.5833" stroke="white" stroke-width="1.5" stroke-linecap="round" stroke-linejoin="round"/>
<path d="M14.6667 4.58334L17.4167 7.33334M18.6863 6.03626C19.0473 5.67523 19.2501 5.18557 19.2501 4.67501C19.2501 4.16444 19.0473 3.67478 18.6863 3.31376C18.3252 2.95273 17.8356 2.74991 17.325 2.74991C16.8144 2.74991 16.3248 2.95273 15.9638 3.31376L8.25 11V13.75H11L18.6863 6.03626Z" stroke="white" stroke-width="1.5" stroke-linecap="round" stroke-linejoin="round"/>
</svg>
