<svg width="16" height="16" viewBox="0 0 16 16" fill="none" xmlns="http://www.w3.org/2000/svg">
<path d="M5.33334 12C4.96667 12 4.65289 11.8695 4.392 11.6087C4.13111 11.3478 4.00045 11.0338 4 10.6667V2.66666C4 2.29999 4.13067 1.98622 4.392 1.72533C4.65334 1.46444 4.96711 1.33377 5.33334 1.33333H13.3333C13.7 1.33333 14.014 1.46399 14.2753 1.72533C14.5367 1.98666 14.6671 2.30044 14.6667 2.66666V10.6667C14.6667 11.0333 14.5362 11.3473 14.2753 11.6087C14.0144 11.87 13.7004 12.0004 13.3333 12H5.33334ZM5.33334 10.6667H13.3333V5.33333H8.66667V2.66666H5.33334V10.6667ZM2.66667 14.6667C2.3 14.6667 1.98622 14.5362 1.72534 14.2753C1.46445 14.0144 1.33378 13.7004 1.33334 13.3333V3.99999H2.66667V13.3333H12V14.6667H2.66667Z" fill="black"/>
</svg>
